# xmcd
#
# Track frame offsets:
#	150
#	27492
#	52140
#	83671
#	114481
#	146677
#
# Disc length: 2383 seconds
#
# Revision: 0
# Processed by: cddbd v1.5.2PL0 Copyright (c) Steve Scherf et al.
# Submitted via: dBpowerAMP V4.0
#
DISCID=4f094d06
DTITLE=E.W. Wainwright - African Roots Of Jazz
DYEAR=1981
DGENRE=Jazz+Funk
TTITLE0=The Healer -  Don't Break
TTITLE1=Tisha's Place - One Mornin' Soon
TTITLE2=Imani
TTITLE3=Ayoka
TTITLE4=Our Song
TTITLE5=The Mfecane
EXTD=Sean P.
EXTT0=
EXTT1=
EXTT2=
EXTT3=
EXTT4=
EXTT5=
PLAYORDER=
